<svg width="150" height="23" viewBox="0 0 150 23" fill="none" xmlns="http://www.w3.org/2000/svg">
<g id="usa_today_logo.svg" clip-path="url(#clip0_51_452)">
<path id="path6918" d="M22.4579 11.25C22.4579 17.4632 17.4308 22.5 11.2283 22.5C5.02707 22.5 0 17.4632 0 11.25C0 5.03679 5.02707 0 11.2283 0C17.4308 0 22.4579 5.03679 22.4579 11.25Z" fill="#00ABE6"/>
<path id="path42590" d="M32.9515 16.0784C31.184 16.0784 30.1976 14.9948 30.1976 13.0834V3.3811H25.8164V13.0584C25.8164 17.3075 28.4051 19.7356 32.9515 19.7356C37.4979 19.7356 40.0865 17.3075 40.0865 13.0584V3.3811H35.7053V13.0834C35.7053 14.9948 34.7189 16.0784 32.9515 16.0784Z" fill="#33261C"/>
<path id="path42586" d="M47.8195 19.7355C51.6599 19.7355 54.1785 17.6837 54.1785 14.6385C54.1785 12.4663 52.8816 10.7907 49.4418 9.84754L48.2401 9.51642C46.5227 9.04485 45.8868 8.52813 45.8868 7.7706C45.8868 6.96793 46.5928 6.52144 47.8395 6.52144C49.3517 6.52144 50.974 7.36926 52.1055 8.3375L54.2936 5.57829C52.5762 4.01809 50.2679 3.07495 47.8195 3.07495C44.1193 3.07495 41.5307 5.08164 41.5307 8.17195C41.5307 10.5549 43.0828 12.1151 45.9569 12.8676L46.9483 13.1285C49.0913 13.6954 49.8223 14.1218 49.8223 14.9696C49.8223 15.8425 49.0663 16.289 47.7945 16.289C45.9118 16.289 44.3546 15.6067 43.0828 14.473L40.9648 17.1419C42.7323 18.7923 45.2058 19.7355 47.8195 19.7355Z" fill="#33261C"/>
<path id="path42582" d="M66.6827 19.4294H71.139L65.2707 3.38086H60.1836L54.3203 19.4294H58.6514L59.6678 16.4344H65.6713L66.6827 19.4294ZM60.7744 13.1735L62.6821 7.55979L64.5647 13.1735H60.7744Z" fill="#33261C"/>
<path id="path42578" d="M79.5897 19.4296H83.9709V6.92291H88.7326V3.3811H74.833V6.92291H79.5897V19.4296Z" fill="#33261C"/>
<path id="path42570" d="M96.9398 19.7355C101.742 19.7355 105.251 16.3141 105.251 11.4278C105.251 6.54653 101.742 3.07495 96.9398 3.07495C92.133 3.07495 88.623 6.54653 88.623 11.4278C88.623 16.3141 92.133 19.7355 96.9398 19.7355ZM96.9398 16.1034C94.6565 16.1034 93.0743 14.2121 93.0743 11.4278C93.0743 8.64351 94.6565 6.71208 96.9398 6.71208C99.223 6.71208 100.8 8.64351 100.8 11.4278C100.8 14.2121 99.223 16.1034 96.9398 16.1034Z" fill="#33261C"/>
<path id="path42566" d="M106.767 19.4296H113.075C117.812 19.4296 121.182 16.1236 121.182 11.4079C121.182 6.68712 117.812 3.3811 113.075 3.3811H106.767V19.4296ZM111.078 15.963V6.85267H113.075C115.384 6.85267 116.801 8.66873 116.801 11.4079C116.801 14.142 115.384 15.963 113.075 15.963H111.078Z" fill="#33261C"/>
<path id="path42558" d="M132.735 19.4296H137.192L131.323 3.3811H126.236L120.373 19.4296H124.704L125.721 16.4346H131.724L132.735 19.4296ZM126.827 13.1737L128.735 7.56003L130.617 13.1737H126.827Z" fill="#33261C"/>
<path id="path42562" d="M144.327 13.6501L150 3.38086H145.058L142.113 9.75209L139.144 3.38086H134.197L139.875 13.6501V19.4294H144.327V13.6501Z" fill="#33261C"/>
</g>
<defs>
<clipPath id="clip0_51_452">
<rect width="150" height="22.5" fill="white"/>
</clipPath>
</defs>
</svg>
