<svg width="221" height="14" viewBox="0 0 221 14" fill="none" xmlns="http://www.w3.org/2000/svg">
<g id="american_express_logo.svg" clip-path="url(#clip0_51_441)">
<g id="Group">
<path id="Vector" d="M216.393 5.40579H213.012C212.26 5.40579 211.786 4.93487 211.786 4.28736C211.786 3.63984 212.349 3.25722 213.012 3.25722H219.122L220.535 0.176636H213.012C209.908 0.176636 208.118 2.04069 208.118 4.47376C208.118 7.08344 209.809 8.58449 212.537 8.58449H215.918C216.67 8.58449 217.144 9.0554 217.144 9.70292C217.144 10.3602 216.67 10.8213 215.918 10.8213H208.583V13.9019H215.918C219.023 13.9019 220.812 12.1262 220.812 9.51651C220.812 6.89703 219.211 5.40579 216.393 5.40579ZM202.947 5.40579H199.566C198.815 5.40579 198.34 4.93487 198.34 4.28736C198.34 3.63984 198.904 3.25722 199.566 3.25722H205.676L207.09 0.176636H199.566C196.462 0.176636 194.673 2.04069 194.673 4.47376C194.673 7.08344 196.363 8.58449 199.092 8.58449H202.473C203.224 8.58449 203.699 9.0554 203.699 9.70292C203.699 10.3602 203.224 10.8213 202.473 10.8213H195.137V13.9019H202.473C205.577 13.9019 207.367 12.1262 207.367 9.51651C207.367 6.89703 205.765 5.40579 202.947 5.40579ZM181.504 13.8038H193.071V10.7232H185.172V8.48638H192.883V5.40579H185.172V3.25722H193.071V0.186447H181.504V13.8038ZM174.257 5.965H170.402V3.25722H174.257C175.384 3.25722 175.948 3.91455 175.948 4.66017C175.859 5.40579 175.295 5.965 174.257 5.965ZM179.626 4.57187C179.626 1.9622 177.747 0.186447 174.732 0.186447H166.833V13.8136H170.5V9.0554H171.815L175.958 13.8136H180.476L175.958 8.869C178.212 8.39808 179.626 6.71063 179.626 4.57187ZM159.873 6.24952H155.918V3.26704H159.873C161 3.26704 161.563 3.92436 161.563 4.75828C161.474 5.59219 160.911 6.24952 159.873 6.24952ZM160.248 0.186447H152.25V13.8136H155.928V9.33011H160.159C163.264 9.33011 165.142 7.36795 165.142 4.75828C165.142 2.0505 163.264 0.186447 160.248 0.186447ZM151.598 0.186447H146.892L143.323 4.29717L139.744 0.186447H134.949L140.97 6.90684L134.86 13.8136H139.566L143.234 9.51651L147 13.8136H151.795L145.587 6.81854L151.598 0.186447ZM122.729 13.8038H134.296V10.7232H126.397V8.48638H134.109V5.40579H126.397V3.25722H134.296V0.186447H122.729V13.8038ZM109.838 8.48638L104.192 0.176636H99.5854V13.8038H103.253V5.12127L108.987 13.8038H113.407V0.186447H109.838V8.48638ZM88.4929 8.02527L90.3713 3.45344L92.2498 8.02527H88.4929ZM88.1172 0.186447L82.0965 13.8136H86.14L87.267 11.0176H93.6635L94.8894 13.8136H99.0318L92.8232 0.186447H88.1172ZM76.0756 7.09324V6.80873C76.0756 4.75828 77.2027 3.35533 79.5556 3.35533H83.698V0.186447H79.2788C74.7608 0.186447 72.4177 3.08063 72.4177 6.80873V7.09324C72.4177 11.2923 75.0475 13.7155 79.091 13.7155H80.3169L81.8196 10.6349H79.6545C77.4894 10.733 76.0756 9.51651 76.0756 7.09324ZM66.8615 0.186447V13.8136H70.5294V0.186447H66.8615ZM59.5259 5.965H55.6702V3.25722H59.5259C60.6529 3.25722 61.2164 3.91455 61.2164 4.66017C61.2164 5.40579 60.6529 5.965 59.5259 5.965ZM64.8843 4.57187C64.8843 1.9622 63.0059 0.186447 59.9905 0.186447H52.0913V13.8136H55.7591V9.0554H57.074L61.2164 13.8136H65.8235L61.3054 8.869C63.5694 8.39808 64.8843 6.71063 64.8843 4.57187ZM38.0823 13.8038H49.6494V10.7232H41.7502V8.48638H49.4615V5.40579H41.7502V3.25722H49.6494V0.186447H38.0823V13.8038ZM26.4263 8.77089L23.3219 0.186447H17.5879V13.8136H21.1568V4.01266L24.7258 13.8136H28.018L31.6858 4.01266V13.8136H35.2548V0.186447H29.5207L26.4263 8.77089ZM6.48546 8.02527L8.36387 3.45344L10.2423 8.02527C10.2522 8.02527 6.48546 8.02527 6.48546 8.02527ZM6.02079 0.186447L0 13.8136H4.04352L5.17057 11.0176H11.5671L12.793 13.8136H16.9354L10.8256 0.186447H6.02079Z" fill="#006FCF"/>
</g>
</g>
<defs>
<clipPath id="clip0_51_441">
<rect width="221" height="14" fill="white"/>
</clipPath>
</defs>
</svg>
