<svg width="150" height="36" viewBox="0 0 150 36" fill="none" xmlns="http://www.w3.org/2000/svg">
<g id="bitflyer_usa_logo.svg" clip-path="url(#clip0_51_408)">
<path id="Vector" d="M10.8173 0H0V10.8H10.8173V0Z" fill="#1980E5"/>
<path id="Vector_2" d="M10.8173 12.6001H0V23.4001H10.8173V12.6001Z" fill="#1980E5"/>
<path id="Vector_3" d="M10.8173 25.2H0V36H10.8173V25.2Z" fill="#1980E5"/>
<path id="Vector_4" d="M23.4374 0H12.6201V10.8H23.4374V0Z" fill="#1980E5"/>
<path id="Vector_5" d="M36.0575 0H25.2402V10.8H36.0575V0Z" fill="#1980E5"/>
<path id="Vector_6" d="M18.0288 23.52C21.0823 23.52 23.5577 21.0486 23.5577 18C23.5577 14.9514 21.0823 12.48 18.0288 12.48C14.9753 12.48 12.5 14.9514 12.5 18C12.5 21.0486 14.9753 23.52 18.0288 23.52Z" fill="#FA8033"/>
<path id="Vector_7" d="M49.0384 26.46C49.4879 26.6688 50.3004 26.88 51.8317 26.88C53.7547 26.88 56.6706 25.56 56.6706 21.06C56.6706 16.56 53.6345 15.84 52.4038 15.84C51.2069 15.8488 50.0382 16.203 49.0384 16.86V26.46ZM45.4326 28.56V5.52002H49.0384V14.0112C50.2695 13.3958 51.6279 13.0769 53.0047 13.08C54.3268 13.08 60.3966 13.7712 60.3966 21.18C60.3966 28.08 54.2355 29.76 51.8317 29.76C49.3076 29.76 46.3942 29.04 45.4326 28.56Z" fill="#242428"/>
<path id="Vector_8" d="M67.0074 8.42868C67.0136 8.86903 66.8885 9.30128 66.648 9.67043C66.4075 10.0396 66.0624 10.329 65.6567 10.5018C65.251 10.6746 64.8029 10.7231 64.3696 10.641C63.9362 10.5589 63.5371 10.3499 63.223 10.0407C62.9089 9.73154 62.694 9.33606 62.6056 8.90459C62.5173 8.47312 62.5594 8.02516 62.7268 7.61769C62.8941 7.21022 63.179 6.86164 63.5454 6.6163C63.9117 6.37095 64.3428 6.23993 64.7839 6.23988C65.0747 6.23444 65.3638 6.28711 65.634 6.39479C65.9041 6.50247 66.1501 6.66299 66.3572 6.86691C66.5644 7.07083 66.7286 7.31404 66.8403 7.58225C66.9519 7.85045 67.0088 8.13823 67.0074 8.42868ZM62.981 13.4399V29.5199H66.5868V13.4399H62.981Z" fill="#242428"/>
<path id="Vector_9" d="M80.0765 26.0087C79.5068 26.3687 78.5741 26.8487 77.6125 26.8487C76.7423 26.8487 75.9611 26.4887 75.9611 24.5399V16.1999H79.776L80.4683 13.4399H75.9611V8.3999L72.3553 9.8399V13.4399H69.4707V16.1999H72.3553V25.4399C72.3553 27.6887 73.6173 29.7599 76.7712 29.7599C78.3048 29.7599 80.1678 29.2199 81.2784 28.4087L80.0765 26.0087Z" fill="#242428"/>
<path id="Vector_10" d="M96.0769 10.08L96.7981 7.19995H83.9375V29.52H87.5433V19.4712H95.8365V16.5912H87.5433V10.08H96.0769Z" fill="#242428"/>
<path id="Vector_11" d="M103.048 5.52002H99.4424V29.52H103.048V5.52002Z" fill="#242428"/>
<path id="Vector_12" d="M137.229 21.4201C137.229 16.8601 135.065 13.0801 130.318 13.0801C125.63 13.0801 122.806 16.8601 122.806 21.4201C122.806 26.4601 125.871 29.7601 130.318 29.7601C133.082 29.7601 135.097 28.7089 136.447 27.4489L134.796 25.1089C133.503 26.1289 132.06 26.8801 130.618 26.8801C128.455 26.8801 126.45 25.1785 126.306 22.5289H137.169C137.21 22.1608 137.23 21.7905 137.229 21.4201ZM130.318 15.8401C132.399 15.8401 133.753 17.3977 133.854 19.8889H126.308C126.46 17.6569 128.277 15.8401 130.318 15.8401Z" fill="#242428"/>
<path id="Vector_13" d="M147.837 13.0801C146.154 13.0801 144.952 13.9849 143.51 15.3385L143.029 13.4401H140.145V29.5201H143.75V17.9617C144.471 17.2969 145.697 16.2289 146.964 16.2289C147.583 16.2345 148.192 16.3893 148.738 16.6801L150 13.6489C149.34 13.2765 148.595 13.0806 147.837 13.0801Z" fill="#242428"/>
<path id="Vector_14" d="M112.483 29.3087L105.452 13.4399H109.178L114.255 25.4999L118.313 13.4399H121.918L116.659 28.1399C114.255 34.8599 111.611 35.9999 109.447 35.9999C108.295 35.9997 107.164 35.6887 106.173 35.0999L107.375 32.2799C108.055 32.5893 108.792 32.7528 109.539 32.7599C110.741 32.7599 112.003 30.6599 112.483 29.3087Z" fill="#242428"/>
</g>
<defs>
<clipPath id="clip0_51_408">
<rect width="150" height="36" fill="white"/>
</clipPath>
</defs>
</svg>
