<svg width="171" height="28" viewBox="0 0 171 28" fill="none" xmlns="http://www.w3.org/2000/svg">
<g id="hdfc_bank_logo.svg" clip-path="url(#clip0_51_423)">
<g id="layer1">
<g id="g11008">
<path id="path1556" d="M0.0214844 0.0333023H171.025V28.0889H0.0214844V0.0333023Z" fill="#004C8F"/>
<path id="path1558" d="M28.5703 0.0333023H171.025V28.0889H28.5703V0.0333023Z" fill="#004C8F"/>
<path id="path1560" d="M37.5098 20.5791V7.25975H41.9795V11.794H46.1608V7.25975H50.6306V20.5791H46.1608V15.4781H41.9795V20.5791H37.5098Z" fill="white"/>
<path id="path1562" d="M57.6957 10.6605H58.8492C59.7143 10.6605 60.291 10.8021 60.7235 10.9438C61.0119 11.0855 61.3003 11.2272 61.4445 11.5106C61.5887 11.794 61.7329 12.0774 61.877 12.5025C62.0212 12.9276 62.0212 13.3526 62.0212 13.9194C62.0212 14.6279 61.877 15.3364 61.7329 15.9031C61.4445 16.4699 61.1561 16.7533 60.7235 17.0367C60.291 17.3201 59.7143 17.3201 58.8492 17.3201H57.6957V10.6605ZM59.2817 20.5791C60.291 20.5791 61.1561 20.4374 61.877 20.2957C62.598 20.154 63.1747 19.8706 63.6072 19.5872C64.0398 19.3038 64.4723 18.8788 64.9049 18.4537C65.3374 17.8869 65.6258 17.3201 65.9142 16.4699C66.2026 15.7614 66.3467 14.7696 66.3467 13.7777C66.3467 12.3608 66.0584 11.0855 65.4817 10.0936C64.9049 9.10179 64.184 8.39331 63.1747 7.96823C62.1654 7.54314 61.0119 7.25975 59.5701 7.25975H53.3701V20.5791H59.2817Z" fill="white"/>
<path id="path1564" d="M68.3652 20.5791V7.25975H78.8907V10.5188H72.6908V12.6442H77.593V15.7614H72.6908V20.4374L68.3652 20.5791Z" fill="white"/>
<path id="path1566" d="M93.7418 12.5023H89.5605C89.4163 11.7938 89.2721 11.3688 88.8396 10.9437C88.407 10.5186 87.9744 10.3769 87.2535 10.3769C86.5326 10.3769 85.8117 10.6603 85.3791 11.2271C84.9466 11.7939 84.6582 12.7857 84.6582 14.061C84.6582 15.0528 84.8024 15.6196 84.9466 16.1864C85.0908 16.6115 85.5233 17.0365 85.8117 17.3199C86.2442 17.6033 86.6768 17.6033 87.2535 17.6033C87.9744 17.6033 88.407 17.4617 88.8396 17.0366C89.2721 16.6115 89.4163 16.1864 89.5605 15.3362H93.886C93.7418 16.1864 93.5977 16.8949 93.3093 17.4616C93.0209 18.0284 92.7326 18.5952 92.1558 19.162C91.5791 19.7288 90.8581 20.1538 90.1372 20.4372C89.4163 20.7206 88.407 20.8623 87.3977 20.8623C86.3884 20.8623 85.3791 20.7206 84.514 20.4372C83.6489 20.1538 82.928 19.7288 82.3512 19.162C81.7745 18.5952 81.342 18.0284 80.9094 17.3199C80.4768 16.3281 80.1885 15.1945 80.1885 14.061C80.1885 13.0691 80.3327 12.0772 80.7652 11.2271C81.0536 10.3769 81.6303 9.52673 82.2071 8.95995C82.7838 8.39317 83.5048 7.96808 84.2257 7.543C85.0908 7.11791 86.1 6.97623 87.2535 6.97623C88.2628 6.97623 89.128 7.1179 89.9931 7.40129C90.8582 7.68468 91.5791 8.10976 92.1558 8.67654C92.7326 9.24332 93.1651 9.81012 93.4535 10.5186C93.4535 11.0854 93.5976 11.6521 93.7418 12.5023Z" fill="white"/>
<path id="path1568" d="M107.872 10.3771C108.449 10.3771 108.881 10.3771 109.17 10.5188C109.458 10.6605 109.602 10.8021 109.746 10.9438C109.89 11.0855 110.035 11.3689 110.035 11.6523C110.035 11.9357 109.89 12.2191 109.602 12.5025C109.314 12.7859 108.881 12.7859 108.16 12.7859H106.43V10.5188H107.872V10.3771ZM109.025 20.5791C110.035 20.5791 110.756 20.5791 111.188 20.4374C111.621 20.2957 112.053 20.154 112.486 20.0123C112.918 19.7289 113.207 19.5872 113.495 19.3038C113.783 19.0204 114.072 18.5954 114.216 18.1703C114.36 17.7452 114.504 17.1784 114.504 16.6116C114.504 15.7615 114.36 15.1947 113.928 14.6279C113.495 14.0611 112.918 13.7777 112.342 13.4944C113.495 12.7859 114.072 11.794 114.072 10.6605C114.072 9.52691 113.495 8.53501 112.486 7.96823C111.765 7.54314 110.467 7.25975 108.737 7.25975H102.104V20.5791H109.025ZM108.304 15.053C109.17 15.053 109.746 15.1947 110.035 15.3364C110.323 15.6198 110.467 15.9032 110.467 16.1866C110.467 16.6116 110.323 16.895 110.035 17.1784C109.746 17.4618 109.17 17.4618 108.304 17.4618H106.43V14.9113L108.304 15.053Z" fill="white"/>
<path id="path1570" d="M124.308 16.1866H121.425L122.867 11.3689L124.308 16.1866ZM120.271 20.5791L120.848 18.8787H125.318L125.894 20.5791H130.364L125.462 7.25975H120.992L116.09 20.5791H120.271Z" fill="white"/>
<path id="path1572" d="M131.95 20.5791V7.25975H136.132L140.745 14.3445V7.25975H144.927V20.5791H140.745L136.132 13.636V20.5791H131.95Z" fill="white"/>
<path id="path1574" d="M147.955 20.5791V7.25975H152.281V11.794L156.318 7.40146H161.508L156.606 12.3608L162.085 20.5791H156.75L153.578 15.3364L152.425 16.4699V20.5791H147.955Z" fill="white"/>
<path id="path1576" d="M0.0214844 0.0333023H28.5701V28.0889H0.0214844V0.0333023Z" fill="#ED232A"/>
<path id="path1578" d="M5.06836 4.85077H23.524V23.1294H5.06836V4.85077Z" fill="white"/>
<path id="path1580" d="M12.8535 0.0333023H15.7372V28.0889H12.8535V0.0333023Z" fill="white"/>
<path id="path1582" d="M0.0214844 12.6441H28.5701V15.478H0.0214844V12.6441Z" fill="white"/>
<path id="path1584" d="M9.9707 9.81042H18.4776V18.1704H9.9707V9.81042Z" fill="#004C8F"/>
</g>
</g>
</g>
<defs>
<clipPath id="clip0_51_423">
<rect width="171" height="28" fill="white"/>
</clipPath>
</defs>
</svg>
