<svg width="22" height="22" viewBox="0 0 22 22" fill="none" xmlns="http://www.w3.org/2000/svg">
<g id="Frame 404">
<path id="Path" d="M17.9702 14.8474C17.9306 14.7281 17.6787 14.5523 17.2146 14.3205C17.0888 14.2475 16.9097 14.1482 16.6779 14.0222C16.4458 13.8962 16.2352 13.7802 16.0464 13.6741C15.8572 13.568 15.68 13.4653 15.5144 13.366C15.4879 13.3461 15.4051 13.2882 15.2659 13.1919C15.1265 13.0958 15.009 13.0246 14.9127 12.9781C14.8166 12.9318 14.7221 12.9086 14.6293 12.9086C14.4967 12.9086 14.3311 13.0031 14.1323 13.1919C13.9335 13.3809 13.7512 13.5863 13.5855 13.8085C13.4199 14.0307 13.2441 14.236 13.0587 14.4249C12.873 14.6139 12.7204 14.7084 12.6013 14.7084C12.5414 14.7084 12.4668 14.6917 12.3774 14.6588C12.288 14.6256 12.2201 14.5973 12.1734 14.5744C12.1271 14.551 12.0478 14.5048 11.935 14.4349C11.822 14.3653 11.7592 14.3272 11.7459 14.3205C10.8378 13.8166 10.0589 13.2399 9.40922 12.5905C8.75971 11.9407 8.18289 11.162 7.6791 10.2538C7.67249 10.2405 7.63428 10.1775 7.56473 10.0649C7.49507 9.95217 7.44865 9.87274 7.42545 9.82621C7.40225 9.77986 7.37408 9.71187 7.34099 9.62241C7.3079 9.53294 7.29129 9.45841 7.29129 9.39868C7.29129 9.27944 7.38578 9.1269 7.57472 8.94128C7.76363 8.75576 7.96919 8.58003 8.19118 8.41443C8.41335 8.24884 8.6187 8.06649 8.80767 7.8677C8.99658 7.66881 9.09103 7.50318 9.09103 7.37063C9.09103 7.27789 9.06784 7.18334 9.02148 7.08725C8.97509 6.99096 8.90383 6.87345 8.80767 6.73419C8.71148 6.59499 8.65349 6.51221 8.63357 6.48556C8.53424 6.31997 8.4316 6.14267 8.32541 5.95374C8.21922 5.76484 8.10331 5.55428 7.9773 5.32231C7.8514 5.09044 7.75203 4.9114 7.67903 4.78546C7.44715 4.32155 7.27151 4.06955 7.15215 4.02992C7.10573 4.01003 7.03607 4 6.94336 4C6.76427 4 6.53065 4.03308 6.2423 4.09946C5.95386 4.16574 5.72688 4.23525 5.56114 4.30828C5.22968 4.44741 4.87837 4.85174 4.5071 5.52113C4.16902 6.14409 4 6.76069 4 7.37046C4 7.54929 4.0116 7.72328 4.03479 7.89246C4.05799 8.06147 4.09943 8.25208 4.15916 8.46423C4.21879 8.67633 4.26689 8.83388 4.30325 8.93647C4.33964 9.03914 4.40759 9.22306 4.50706 9.48829C4.60639 9.75346 4.66612 9.91578 4.68601 9.97544C4.918 10.6251 5.19311 11.205 5.51126 11.7155C6.03473 12.5639 6.74909 13.4407 7.65392 14.3456C8.55879 15.2504 9.43548 15.9646 10.284 16.4883C10.7944 16.8064 11.3746 17.0814 12.0242 17.3136C12.0839 17.3334 12.2463 17.3929 12.5113 17.4926C12.7765 17.592 12.9605 17.66 13.0632 17.6964C13.1659 17.7329 13.3235 17.781 13.5354 17.8408C13.7478 17.9005 13.9382 17.9419 14.1073 17.9653C14.2764 17.9882 14.4504 18 14.6293 18C15.2391 18 15.8557 17.8309 16.4788 17.4929C17.1482 17.1218 17.5525 16.7704 17.6917 16.4387C17.7649 16.2732 17.8342 16.0461 17.9005 15.7577C17.967 15.4694 18 15.2358 18 15.0568C18.0002 14.9637 17.9902 14.8942 17.9702 14.8474Z" stroke="white"/>
</g>
</svg>
