<svg width="184" height="25" viewBox="0 0 184 25" fill="none" xmlns="http://www.w3.org/2000/svg">
<path d="M37.9372 3.35156H41.6744L50.2125 15.5282C50.156 14.7838 50.156 13.82 50.156 12.9421V3.35156H54.1097V22.0459H50.3725L41.8343 9.85975C41.8908 10.6327 41.8909 11.5679 41.8909 12.4268V22.0459H37.9372V3.35156Z" fill="#244A9A"/>
<path d="M59.8144 3.35156H72.8051V6.87285H63.7681V10.8522H72.0144V14.383H63.7681V18.5246H72.9652V22.0459H59.8144V3.35156Z" fill="#244A9A"/>
<path d="M76.2315 3.35156H80.5336L84.1672 17.4749L88.1491 3.35156H91.6227L95.6235 17.4749L99.2665 3.35156H103.559L97.8733 22.0459H93.5431L89.8812 9.30626L86.2193 22.0459H81.9268L76.2315 3.35156Z" fill="#244A9A"/>
<path d="M107.389 3.35156H114.346C118.799 3.35156 122.301 4.79252 122.301 9.63072C122.301 14.4689 118.799 15.9099 114.346 15.9099H111.343V22.0554H107.389V3.35156ZM114.525 12.379C116.53 12.379 118.234 11.816 118.234 9.63072C118.234 7.44542 116.521 6.88239 114.525 6.88239H111.334V12.379H114.525Z" fill="#244A9A"/>
<path d="M125.728 12.6938C125.728 7.61707 128.966 2.96973 135.528 2.96973C142.061 2.96973 145.327 7.61707 145.327 12.6938C145.327 17.7706 142.061 22.4179 135.528 22.4179C128.966 22.4179 125.728 17.7706 125.728 12.6938ZM141.27 12.6938C141.27 9.41111 139.321 6.68187 135.528 6.68187C131.706 6.68187 129.785 9.40157 129.785 12.6938C129.785 15.9765 131.706 18.7058 135.528 18.7058C139.321 18.7058 141.27 15.9861 141.27 12.6938Z" fill="#244A9A"/>
<path d="M149.995 3.35156H157.582C161.169 3.35156 164.906 4.71618 164.906 9.43986C164.906 12.6462 163.118 14.2685 160.905 14.9938L166.384 22.0459H161.828L156.848 15.4995H153.949V22.0459H149.995V3.35156ZM157.742 12.1596C159.427 12.1596 160.849 11.4152 160.849 9.5162C160.849 7.58856 159.427 6.87285 157.742 6.87285H153.949V12.1596H157.742Z" fill="#244A9A"/>
<path d="M174.161 6.97782H168.494V3.35156H183.753V6.97782H178.115V22.0459H174.161V6.97782Z" fill="#244A9A"/>
<path d="M14.3176 24.1165H0.592651V0.898926H6.16553L14.3176 24.1165Z" fill="#0BBBEF"/>
<path d="M12.0014 0.898926H25.7264V24.1165H20.1536L12.0014 0.898926Z" fill="#0BBBEF"/>
</svg>
